<svg xmlns="http://www.w3.org/2000/svg" viewBox="0 0 564.53 517.27">
	<defs>
		<style>.cls-1,.cls-6{fill: #231f20;}.cls-1,.cls-14{stroke: #231f20;}.cls-1,.cls-10,.cls-14,.cls-18,.cls-19,.cls-20,.cls-21,.cls-22,.cls-3,.cls-4,.cls-5,.cls-8,.cls-9{stroke-miterlimit: 10;}.cls-1{opacity: 0.25;}.cls-2{fill: #b5e2e9;}.cls-10,.cls-14,.cls-18,.cls-19,.cls-20,.cls-21,.cls-22,.cls-3,.cls-4,.cls-5,.cls-8,.cls-9{fill: none;}.cls-18,.cls-19,.cls-3,.cls-4,.cls-5{stroke: #4f57a6;}.cls-10,.cls-14,.cls-18,.cls-19,.cls-20,.cls-21,.cls-3,.cls-4,.cls-5,.cls-8,.cls-9{stroke-width: 2px;}.cls-4,.cls-9{stroke-dasharray: 12.11 12.11;}.cls-5{stroke-dasharray: 12.73 12.73;}.cls-6{font-size: 25px;font-family: MyriadPro-Semibold, Myriad Pro;font-weight: 700;}.cls-7{fill: #fbb040;}.cls-10,.cls-20,.cls-21,.cls-8,.cls-9{stroke: #be1e2d;}.cls-10{stroke-dasharray: 11.36 11.36;}.cls-11{letter-spacing: -0.01em;}.cls-12{letter-spacing: -0.01em;}.cls-13{letter-spacing: 0em;}.cls-15{letter-spacing: 0.01em;}.cls-16{letter-spacing: 0em;}.cls-17{letter-spacing: 0em;}.cls-18,.cls-20{stroke-dasharray: 12.08 12.08;}.cls-19{stroke-dasharray: 7.5 7.5;}.cls-21{stroke-dasharray: 8.34 8.34;}.cls-22{stroke: #ed1c24;stroke-linecap: round;stroke-width: 13px;}</style>
	</defs>
	<title>headers-and-footers-inside-headers-and-footers</title>
	<rect class="cls-1" x="19.16" y="21.24" width="381.88" height="473.83" />
	<rect class="cls-2" x="28.22" y="68.41" width="363.09" height="202.89" />
	<polyline class="cls-3" points="391.31 265.3 391.31 271.3 385.31 271.3" />
	<line class="cls-4" x1="373.2" y1="271.3" x2="40.28" y2="271.3" />
	<polyline class="cls-3" points="34.22 271.3 28.22 271.3 28.22 265.3" />
	<line class="cls-5" x1="28.22" y1="252.57" x2="28.22" y2="80.77" />
	<polyline class="cls-3" points="28.22 74.41 28.22 68.41 34.22 68.41" />
	<line class="cls-4" x1="46.33" y1="68.41" x2="379.26" y2="68.41" />
	<polyline class="cls-3" points="385.31 68.41 391.31 68.41 391.31 74.41" />
	<line class="cls-5" x1="391.31" y1="87.14" x2="391.31" y2="258.94" /><text class="cls-6"
		transform="translate(156.75 102.92)">&lt;header&gt;</text>
	<rect class="cls-7" x="28.22" y="297.21" width="363.09" height="182.44" />
	<polyline class="cls-8" points="391.31 473.65 391.31 479.65 385.31 479.65" />
	<line class="cls-9" x1="373.2" y1="479.65" x2="40.27" y2="479.65" />
	<polyline class="cls-8" points="34.22 479.65 28.22 479.65 28.22 473.65" />
	<line class="cls-10" x1="28.22" y1="462.28" x2="28.22" y2="308.89" />
	<polyline class="cls-8" points="28.22 303.21 28.22 297.21 34.22 297.21" />
	<line class="cls-9" x1="46.33" y1="297.21" x2="379.26" y2="297.21" />
	<polyline class="cls-8" points="385.31 297.21 391.31 297.21 391.31 303.21" />
	<line class="cls-10" x1="391.31" y1="314.57" x2="391.31" y2="467.96" />
	<text class="cls-6" transform="translate(161.7 324.88)">&lt;footer&gt;</text>
	<rect class="cls-14" x="19.16" y="21.24" width="381.88" height="473.83" />
	<text class="cls-6" transform="translate(83.69 52.4)">&lt;[sectioning element]&gt;</text>
	<rect class="cls-1" x="55.45" y="115.85" width="308.62" height="138.22" />
	<rect class="cls-14" x="55.45" y="116.52" width="308.62" height="137.22" />
	<rect class="cls-2" x="64.51" y="157.82" width="289.83" height="34.51" />
	<polyline class="cls-3" points="354.35 186.33 354.35 192.33 348.35 192.33" />
	<line class="cls-18" x1="336.27" y1="192.33" x2="76.55" y2="192.33" />
	<polyline class="cls-3" points="70.51 192.33 64.51 192.33 64.51 186.33" />
	<line class="cls-19" x1="64.51" y1="178.83" x2="64.51" y2="167.57" />
	<polyline class="cls-3" points="64.51 163.82 64.51 157.82 70.51 157.82" />
	<line class="cls-18" x1="82.59" y1="157.82" x2="342.31" y2="157.82" />
	<polyline class="cls-3" points="348.35 157.82 354.35 157.82 354.35 163.82" />
	<line class="cls-19" x1="354.35" y1="171.32" x2="354.35" y2="182.58" />
	<text class="cls-6" transform="translate(156.42 184.33)">&lt;header&gt;</text>
	<rect class="cls-7" x="63.69" y="205.67" width="289.83" height="37.02" />
	<polyline class="cls-8" points="353.52 236.68 353.52 242.68 347.52 242.68" />
	<line class="cls-20" x1="335.44" y1="242.68" x2="75.73" y2="242.68" />
	<polyline class="cls-8" points="69.69 242.68 63.69 242.68 63.69 236.68" />
	<line class="cls-21" x1="63.69" y1="228.35" x2="63.69" y2="215.84" />
	<polyline class="cls-8" points="63.69 211.67 63.69 205.67 69.69 205.67" />
	<line class="cls-20" x1="81.77" y1="205.67" x2="341.48" y2="205.67" />
	<polyline class="cls-8" points="347.52 205.67 353.52 205.67 353.52 211.67" />
	<line class="cls-21" x1="353.52" y1="220.01" x2="353.52" y2="232.51" />
	<text class="cls-6" transform="translate(160.54 230.02)">&lt;footer&gt;</text>
	<text class="cls-6" transform="translate(83.35 145.7)">&lt;[sectioning element]&gt;</text>
	<rect class="cls-1" x="55.45" y="331.7" width="308.62" height="138.22" />
	<rect class="cls-14" x="55.45" y="332.37" width="308.62" height="137.22" />
	<rect class="cls-2" x="64.51" y="373.68" width="289.83" height="34.51" />
	<polyline class="cls-3" points="354.35 402.18 354.35 408.18 348.35 408.18" />
	<line class="cls-18" x1="336.27" y1="408.18" x2="76.55" y2="408.18" />
	<polyline class="cls-3" points="70.51 408.18 64.51 408.18 64.51 402.18" />
	<line class="cls-19" x1="64.51" y1="394.68" x2="64.51" y2="383.43" />
	<polyline class="cls-3" points="64.51 379.68 64.51 373.68 70.51 373.68" />
	<line class="cls-18" x1="82.59" y1="373.68" x2="342.31" y2="373.68" />
	<polyline class="cls-3" points="348.35 373.68 354.35 373.68 354.35 379.68" />
	<line class="cls-19" x1="354.35" y1="387.18" x2="354.35" y2="398.43" />
	<text class="cls-6" transform="translate(156.42 400.18)">&lt;header&gt;</text>
	<rect class="cls-7" x="63.69" y="421.52" width="289.83" height="37.02" />
	<polyline class="cls-8" points="353.52 452.54 353.52 458.54 347.52 458.54" />
	<line class="cls-20" x1="335.44" y1="458.54" x2="75.73" y2="458.54" />
	<polyline class="cls-8" points="69.69 458.54 63.69 458.54 63.69 452.54" />
	<line class="cls-21" x1="63.69" y1="444.2" x2="63.69" y2="431.69" />
	<polyline class="cls-8" points="63.69 427.52 63.69 421.52 69.69 421.52" />
	<line class="cls-20" x1="81.77" y1="421.52" x2="341.48" y2="421.52" />
	<polyline class="cls-8" points="347.52 421.52 353.52 421.52 353.52 427.52" />
	<line class="cls-21" x1="353.52" y1="435.86" x2="353.52" y2="448.37" />
	<text class="cls-6" transform="translate(160.54 445.87)">&lt;footer&gt;</text>
	<text class="cls-6" transform="translate(83.35 361.55)">&lt;[sectioning element]&gt;</text>
	<line class="cls-22" x1="428.64" y1="99.78" x2="528.67" y2="189.12" />
	<line class="cls-22" x1="528.6" y1="99.78" x2="428.55" y2="189.12" />
</svg>