<svg xmlns="http://www.w3.org/2000/svg" viewBox="0 0 560.53 513.98">
	<defs>
		<style>.cls-1,.cls-18,.cls-6{fill: #231f20;}.cls-1,.cls-14,.cls-18{stroke: #231f20;}.cls-1,.cls-10,.cls-14,.cls-18,.cls-19,.cls-20,.cls-21,.cls-3,.cls-4,.cls-5,.cls-8,.cls-9{stroke-miterlimit: 10;}.cls-1{opacity: 0.25;}.cls-2{fill: #b5e2e9;}.cls-10,.cls-14,.cls-19,.cls-20,.cls-21,.cls-3,.cls-4,.cls-5,.cls-8,.cls-9{fill: none;}.cls-19,.cls-3,.cls-4,.cls-5{stroke: #4f57a6;}.cls-10,.cls-14,.cls-19,.cls-20,.cls-3,.cls-4,.cls-5,.cls-8,.cls-9{stroke-width: 2px;}.cls-4,.cls-9{stroke-dasharray: 12.11 12.11;}.cls-5{stroke-dasharray: 14.11 14.11;}.cls-6{font-size: 25px;font-family: MyriadPro-Semibold, Myriad Pro;font-weight: 700;}.cls-7{fill: #fbb040;}.cls-10,.cls-20,.cls-8,.cls-9{stroke: #be1e2d;}.cls-10{stroke-dasharray: 14 14;}.cls-11{letter-spacing: -0.01em;}.cls-12{letter-spacing: -0.01em;}.cls-13{letter-spacing: 0em;}.cls-15{letter-spacing: 0.01em;}.cls-16{letter-spacing: 0em;}.cls-17{letter-spacing: 0em;}.cls-18{opacity: 0.15;}.cls-19,.cls-20{stroke-dasharray: 12.08 12.08;}.cls-21{stroke: #33b44a;stroke-width: 13px;}</style>
	</defs>
	<title>Nesting-sectioning-elements</title>
	<rect class="cls-1" x="19.5" y="19.61" width="381.88" height="473.83" />
	<rect class="cls-2" x="28.56" y="66.79" width="363.09" height="54.34" />
	<polyline class="cls-3" points="391.64 115.13 391.64 121.13 385.64 121.13" />
	<line class="cls-4" x1="373.54" y1="121.13" x2="40.61" y2="121.13" />
	<polyline class="cls-3" points="34.56 121.13 28.56 121.13 28.56 115.13" />
	<line class="cls-5" x1="28.56" y1="101.02" x2="28.56" y2="79.85" />
	<polyline class="cls-3" points="28.56 72.79 28.56 66.79 34.56 66.79" />
	<line class="cls-4" x1="46.66" y1="66.79" x2="379.59" y2="66.79" />
	<polyline class="cls-3" points="385.64 66.79 391.64 66.79 391.64 72.79" />
	<line class="cls-5" x1="391.64" y1="86.9" x2="391.64" y2="108.07" />
	<text class="cls-6" transform="translate(157.09 101.3)">&lt;header&gt;</text>
	<rect class="cls-7" x="28.56" y="424.01" width="363.09" height="54.01" />
	<polyline class="cls-8" points="391.64 472.02 391.64 478.02 385.64 478.02" />
	<line class="cls-9" x1="373.54" y1="478.02" x2="40.61" y2="478.02" />
	<polyline class="cls-8" points="34.56 478.02 28.56 478.02 28.56 472.02" />
	<line class="cls-10" x1="28.56" y1="458.02" x2="28.56" y2="437.01" />
	<polyline class="cls-8" points="28.56 430.01 28.56 424.01 34.56 424.01" />
	<line class="cls-9" x1="46.66" y1="424.01" x2="379.59" y2="424.01" />
	<polyline class="cls-8" points="385.64 424.01 391.64 424.01 391.64 430.01" />
	<line class="cls-10" x1="391.64" y1="444.02" x2="391.64" y2="465.02" />
	<text class="cls-6" transform="translate(162.04 458.36)">&lt;footer&gt;</text>
	<rect class="cls-14" x="18.33" y="19.61" width="381.88" height="473.83" />
	<text class="cls-6" transform="translate(83.44 50.77)">&lt;[sectioning element]&gt;</text>
	<rect class="cls-18" x="55.54" y="143.24" width="308.62" height="266.18" />
	<rect class="cls-14" x="55.54" y="143.24" width="308.62" height="266.18" />
	<rect class="cls-2" x="64.94" y="190.71" width="289.83" height="54.34" />
	<polyline class="cls-3" points="354.77 239.05 354.77 245.05 348.77 245.05" />
	<line class="cls-19" x1="336.69" y1="245.05" x2="76.98" y2="245.05" />
	<polyline class="cls-3" points="70.94 245.05 64.94 245.05 64.94 239.05" />
	<line class="cls-5" x1="64.94" y1="224.93" x2="64.94" y2="203.76" />
	<polyline class="cls-3" points="64.94 196.71 64.94 190.71 70.94 190.71" />
	<line class="cls-19" x1="83.02" y1="190.71" x2="342.73" y2="190.71" />
	<polyline class="cls-3" points="348.77 190.71 354.77 190.71 354.77 196.71" />
	<line class="cls-5" x1="354.77" y1="210.82" x2="354.77" y2="231.99" /><text class="cls-6"
		transform="translate(156.84 225.21)">&lt;header&gt;</text>
	<rect class="cls-7" x="64.94" y="347.16" width="289.83" height="54.01" />
	<polyline class="cls-8" points="354.77 395.17 354.77 401.17 348.77 401.17" />
	<line class="cls-20" x1="336.69" y1="401.17" x2="76.98" y2="401.17" />
	<polyline class="cls-8" points="70.94 401.17 64.94 401.17 64.94 395.17" />
	<line class="cls-10" x1="64.94" y1="381.17" x2="64.94" y2="360.16" />
	<polyline class="cls-8" points="64.94 353.16 64.94 347.16 70.94 347.16" />
	<line class="cls-20" x1="83.02" y1="347.16" x2="342.73" y2="347.16" />
	<polyline class="cls-8" points="348.77 347.16 354.77 347.16 354.77 353.16" />
	<line class="cls-10" x1="354.77" y1="367.16" x2="354.77" y2="388.17" />
	<text class="cls-6" transform="translate(161.79 381.5)">&lt;footer&gt;</text>
	<text class="cls-6" transform="translate(83.44 172.42)">&lt;[sectioning element]&gt;</text>
	<polyline class="cls-21" points="435.32 146.93 458.14 174.45 521.9 111.21" />
</svg>