<?xml version="1.0" encoding="UTF-8" standalone="no"?>
<svg
   version="1.1"
   x="0px"
   y="0px"
   viewBox="0 0 97.599998 97.599998"
   xml:space="preserve"
   id="svg4"
   xmlns="http://www.w3.org/2000/svg"
   xmlns:svg="http://www.w3.org/2000/svg"><defs
     id="defs4" /><path
     d="m 48.8,21.9 c -8,0 -14.6,6.5 -14.6,14.6 0,2.1 1.7,3.7 3.7,3.7 2,0 3.7,-1.7 3.7,-3.7 0,-3.9 3.2,-7.1 7.1,-7.1 4.1,0 7.1,2.9 7.1,6.8 0,0 0,0.1 0,0.3 0,2.2 -0.6,7.4 -7.7,8.5 -1.8,0.3 -3.2,1.8 -3.2,3.7 v 10.1 c 0,2.1 1.7,3.7 3.7,3.7 2,0 3.7,-1.7 3.7,-3.7 v -7.1 c 9.4,-2.9 10.9,-11 10.9,-15.5 0.2,-8 -6.4,-14.3 -14.4,-14.3 z"
     id="path1" /><path
     d="m 48.8,67 c -2.7,0 -4.8,2.2 -4.8,4.8 0,2.6 2.2,4.8 4.8,4.8 2.6,0 4.8,-2.2 4.8,-4.8 0,-2.6 -2.2,-4.8 -4.8,-4.8 z"
     id="path2" /><path
     d="M 48.8,0 C 21.9,0 0,21.9 0,48.8 0,75.7 21.9,97.6 48.8,97.6 75.7,97.6 97.6,75.7 97.6,48.8 97.6,21.9 75.7,0 48.8,0 Z m 0,90.2 C 26,90.2 7.4,71.6 7.4,48.8 7.4,26 26,7.4 48.8,7.4 71.6,7.4 90.2,26 90.2,48.8 90.1,71.6 71.6,90.2 48.8,90.2 Z"
     id="path3" /></svg>
