<svg version="1.1" x="0" y="0" viewBox="0 0 97.6 97.6" xml:space="preserve" id="svg4" xmlns="http://www.w3.org/2000/svg"><path d="M48.8 21.9c-8 0-14.6 6.5-14.6 14.6 0 2.1 1.7 3.7 3.7 3.7s3.7-1.7 3.7-3.7c0-3.9 3.2-7.1 7.1-7.1 4.1 0 7.1 2.9 7.1 6.8v.3c0 2.2-.6 7.4-7.7 8.5-1.8.3-3.2 1.8-3.2 3.7v10.1c0 2.1 1.7 3.7 3.7 3.7s3.7-1.7 3.7-3.7v-7.1c9.4-2.9 10.9-11 10.9-15.5.2-8-6.4-14.3-14.4-14.3z" id="path1"/><path d="M48.8 67c-2.7 0-4.8 2.2-4.8 4.8 0 2.6 2.2 4.8 4.8 4.8 2.6 0 4.8-2.2 4.8-4.8 0-2.6-2.2-4.8-4.8-4.8z" id="path2"/><path d="M48.8 0C21.9 0 0 21.9 0 48.8s21.9 48.8 48.8 48.8 48.8-21.9 48.8-48.8S75.7 0 48.8 0Zm0 90.2C26 90.2 7.4 71.6 7.4 48.8 7.4 26 26 7.4 48.8 7.4c22.8 0 41.4 18.6 41.4 41.4-.1 22.8-18.6 41.4-41.4 41.4Z" id="path3"/></svg>