<svg
	xmlns='http://www.w3.org/2000/svg'
	xmlns:inkscape='http://www.inkscape.org/namespaces/inkscape'
	xmlns:sodipodi='http://sodipodi.sourceforge.net/DTD/sodipodi-0.dtd'
	xmlns:svg='http://www.w3.org/2000/svg'
	viewBox='0 0 5000 5000'
>
	<sodipodi:namedview
		inkscape:deskcolor="#d1d1d1"
		inkscape:pagecheckerboard="true"
		inkscape:pageopacity="0.0"
		inkscape:showpageshadow="true"
		bordercolor="#ff0000"
		borderopacity="1"
		id="namedview1"
		pagecolor="#ffffff"
	/>
	<g
		inkscape:groupmode="layer"
		class="layer"
		id='mire'
		stroke="blue"
		stroke-linecap="round"
	>
		<g stroke-width="10">
			<line
				x1="2500"
				x2="2500"
				y1="0"
				y2="100"
			/>
			<line
				x1="2500"
				x2="2500"
				y1="5000"
				y2="4900"
			/>
			<line
				x1="2500"
				x2="2500"
				y1="0"
				y2="100"
			/>
			<line
				x1="2500"
				x2="2500"
				y1="5000"
				y2="4900"
			/>

			<line
				x1="2600"
				x2="2600"
				y1="0"
				y2="100"
			/>
			<line
				x1="2600"
				x2="2600"
				y1="5000"
				y2="4900"
			/>
			<line
				x1="2400"
				x2="2400"
				y1="0"
				y2="100"
			/>
			<line
				x1="2400"
				x2="2400"
				y1="5000"
				y2="4900"
			/>

			<line
				x1="2700"
				x2="2700"
				y1="0"
				y2="100"
			/>
			<line
				x1="2700"
				x2="2700"
				y1="5000"
				y2="4900"
			/>
			<line
				x1="2300"
				x2="2300"
				y1="0"
				y2="100"
			/>
			<line
				x1="2300"
				x2="2300"
				y1="5000"
				y2="4900"
			/>

			<line
				x1="2800"
				x2="2800"
				y1="0"
				y2="100"
			/>
			<line
				x1="2800"
				x2="2800"
				y1="5000"
				y2="4900"
			/>
			<line
				x1="2200"
				x2="2200"
				y1="0"
				y2="100"
			/>
			<line
				x1="2200"
				x2="2200"
				y1="5000"
				y2="4900"
			/>

			<line
				x1="2900"
				x2="2900"
				y1="0"
				y2="100"
			/>
			<line
				x1="2900"
				x2="2900"
				y1="5000"
				y2="4900"
			/>
			<line
				x1="2100"
				x2="2100"
				y1="0"
				y2="100"
			/>
			<line
				x1="2100"
				x2="2100"
				y1="5000"
				y2="4900"
			/>

			<line
				x1="3000"
				x2="3000"
				y1="0"
				y2="100"
			/>
			<line
				x1="3000"
				x2="3000"
				y1="5000"
				y2="4900"
			/>
			<line
				x1="2000"
				x2="2000"
				y1="0"
				y2="100"
			/>
			<line
				x1="2000"
				x2="2000"
				y1="5000"
				y2="4900"
			/>

			<line
				x1="3100"
				x2="3100"
				y1="0"
				y2="100"
			/>
			<line
				x1="3100"
				x2="3100"
				y1="5000"
				y2="4900"
			/>
			<line
				x1="1900"
				x2="1900"
				y1="0"
				y2="100"
			/>
			<line
				x1="1900"
				x2="1900"
				y1="5000"
				y2="4900"
			/>

			<line
				x1="3200"
				x2="3200"
				y1="0"
				y2="100"
			/>
			<line
				x1="3200"
				x2="3200"
				y1="5000"
				y2="4900"
			/>
			<line
				x1="1800"
				x2="1800"
				y1="0"
				y2="100"
			/>
			<line
				x1="1800"
				x2="1800"
				y1="5000"
				y2="4900"
			/>

			<line
				x1="3300"
				x2="3300"
				y1="0"
				y2="100"
			/>
			<line
				x1="3300"
				x2="3300"
				y1="5000"
				y2="4900"
			/>
			<line
				x1="1700"
				x2="1700"
				y1="0"
				y2="100"
			/>
			<line
				x1="1700"
				x2="1700"
				y1="5000"
				y2="4900"
			/>

			<line
				x1="3400"
				x2="3400"
				y1="0"
				y2="100"
			/>
			<line
				x1="3400"
				x2="3400"
				y1="5000"
				y2="4900"
			/>
			<line
				x1="1600"
				x2="1600"
				y1="0"
				y2="100"
			/>
			<line
				x1="1600"
				x2="1600"
				y1="5000"
				y2="4900"
			/>

			<line
				x1="3500"
				x2="3500"
				y1="0"
				y2="100"
			/>
			<line
				x1="3500"
				x2="3500"
				y1="5000"
				y2="4900"
			/>
			<line
				x1="1500"
				x2="1500"
				y1="0"
				y2="100"
			/>
			<line
				x1="1500"
				x2="1500"
				y1="5000"
				y2="4900"
			/>

			<line
				x1="3600"
				x2="3600"
				y1="0"
				y2="100"
			/>
			<line
				x1="3600"
				x2="3600"
				y1="5000"
				y2="4900"
			/>
			<line
				x1="1400"
				x2="1400"
				y1="0"
				y2="100"
			/>
			<line
				x1="1400"
				x2="1400"
				y1="5000"
				y2="4900"
			/>

			<line
				x1="3700"
				x2="3700"
				y1="0"
				y2="100"
			/>
			<line
				x1="3700"
				x2="3700"
				y1="5000"
				y2="4900"
			/>
			<line
				x1="1300"
				x2="1300"
				y1="0"
				y2="100"
			/>
			<line
				x1="1300"
				x2="1300"
				y1="5000"
				y2="4900"
			/>

			<line
				x1="3800"
				x2="3800"
				y1="0"
				y2="100"
			/>
			<line
				x1="3800"
				x2="3800"
				y1="5000"
				y2="4900"
			/>
			<line
				x1="1200"
				x2="1200"
				y1="0"
				y2="100"
			/>
			<line
				x1="1200"
				x2="1200"
				y1="5000"
				y2="4900"
			/>

			<line
				x1="3900"
				x2="3900"
				y1="0"
				y2="100"
			/>
			<line
				x1="3900"
				x2="3900"
				y1="5000"
				y2="4900"
			/>
			<line
				x1="1100"
				x2="1100"
				y1="0"
				y2="100"
			/>
			<line
				x1="1100"
				x2="1100"
				y1="5000"
				y2="4900"
			/>

			<line
				x1="4000"
				x2="4000"
				y1="0"
				y2="100"
			/>
			<line
				x1="4000"
				x2="4000"
				y1="5000"
				y2="4900"
			/>
			<line
				x1="1000"
				x2="1000"
				y1="0"
				y2="100"
			/>
			<line
				x1="1000"
				x2="1000"
				y1="5000"
				y2="4900"
			/>

			<line
				x1="4100"
				x2="4100"
				y1="0"
				y2="100"
			/>
			<line
				x1="4100"
				x2="4100"
				y1="5000"
				y2="4900"
			/>
			<line
				x1="900"
				x2="900"
				y1="0"
				y2="100"
			/>
			<line
				x1="900"
				x2="900"
				y1="5000"
				y2="4900"
			/>

			<line
				x1="4200"
				x2="4200"
				y1="0"
				y2="100"
			/>
			<line
				x1="4200"
				x2="4200"
				y1="5000"
				y2="4900"
			/>
			<line
				x1="800"
				x2="800"
				y1="0"
				y2="100"
			/>
			<line
				x1="800"
				x2="800"
				y1="5000"
				y2="4900"
			/>

			<line
				x1="4300"
				x2="4300"
				y1="0"
				y2="100"
			/>
			<line
				x1="4300"
				x2="4300"
				y1="5000"
				y2="4900"
			/>
			<line
				x1="700"
				x2="700"
				y1="0"
				y2="100"
			/>
			<line
				x1="700"
				x2="700"
				y1="5000"
				y2="4900"
			/>

			<line
				x1="4400"
				x2="4400"
				y1="0"
				y2="100"
			/>
			<line
				x1="4400"
				x2="4400"
				y1="5000"
				y2="4900"
			/>
			<line
				x1="600"
				x2="600"
				y1="0"
				y2="100"
			/>
			<line
				x1="600"
				x2="600"
				y1="5000"
				y2="4900"
			/>

			<line
				x1="4500"
				x2="4500"
				y1="0"
				y2="100"
			/>
			<line
				x1="4500"
				x2="4500"
				y1="5000"
				y2="4900"
			/>
			<line
				x1="500"
				x2="500"
				y1="0"
				y2="100"
			/>
			<line
				x1="500"
				x2="500"
				y1="5000"
				y2="4900"
			/>

			<line
				x1="4600"
				x2="4600"
				y1="0"
				y2="100"
			/>
			<line
				x1="4600"
				x2="4600"
				y1="5000"
				y2="4900"
			/>
			<line
				x1="400"
				x2="400"
				y1="0"
				y2="100"
			/>
			<line
				x1="400"
				x2="400"
				y1="5000"
				y2="4900"
			/>

			<line
				x1="4700"
				x2="4700"
				y1="0"
				y2="100"
			/>
			<line
				x1="4700"
				x2="4700"
				y1="5000"
				y2="4900"
			/>
			<line
				x1="300"
				x2="300"
				y1="0"
				y2="100"
			/>
			<line
				x1="300"
				x2="300"
				y1="5000"
				y2="4900"
			/>

			<line
				x1="4800"
				x2="4800"
				y1="0"
				y2="100"
			/>
			<line
				x1="4800"
				x2="4800"
				y1="5000"
				y2="4900"
			/>
			<line
				x1="200"
				x2="200"
				y1="0"
				y2="100"
			/>
			<line
				x1="200"
				x2="200"
				y1="5000"
				y2="4900"
			/>

			<line
				x1="4900"
				x2="4900"
				y1="0"
				y2="100"
			/>
			<line
				x1="4900"
				x2="4900"
				y1="5000"
				y2="4900"
			/>
			<line
				x1="100"
				x2="100"
				y1="0"
				y2="100"
			/>
			<line
				x1="100"
				x2="100"
				y1="5000"
				y2="4900"
			/>

			<line
				x1="5000"
				x2="5000"
				y1="0"
				y2="100"
			/>
			<line
				x1="5000"
				x2="5000"
				y1="5000"
				y2="4900"
			/>
			<line
				x1="0"
				x2="0"
				y1="0"
				y2="100"
			/>
			<line
				x1="0"
				x2="0"
				y1="5000"
				y2="4900"
			/>
		</g>
		<!-- X -->
		<line
			style="stroke-width:50;"
			x1="0"
			x2="5000"
			y1="0"
			y2="5000"
		/>
		<line
			style="stroke-width:50;"
			x1="0"
			x2="5000"
			y1="5000"
			y2="0"
		/>

		<!-- # -->
		<line
			style="stroke-width:25;"
			x1="1666.6666666666667"
			x2="1666.6666666666667"
			y1="0"
			y2="5000"
		/>
		<line
			style="stroke-width:25;"
			x1="3333.3333333333335"
			x2="3333.3333333333335"
			y1="5000"
			y2="0"
		/>
		<line
			style="stroke-width:50;"
			x1="0"
			x2="5000"
			y1="1666.6666666666667"
			y2="1666.6666666666667"
		/>
		<line
			style="stroke-width:50;"
			x1="0"
			x2="5000"
			y1="3333.3333333333335"
			y2="3333.3333333333335"
		/>

		<!-- ᄆ -->
		<rect
			height="5000"
			style="stroke-width:100; fill:none;"
			width="5000"
		/>

		<!-- gradations -->
	</g>
</svg>
