<?xml version="1.0" encoding="UTF-8" standalone="no"?>
<svg
   sodipodi:docname="icon--core.svg"
   inkscape:version="1.3 (0e150ed, 2023-07-21)"
   version="1.1"
   id="svg2"
   height="1024"
   width="1024"
   inkscape:export-filename="../../../../../../../../../export.svg"
   inkscape:export-xdpi="16.879999"
   inkscape:export-ydpi="16.879999"
   xmlns:inkscape="http://www.inkscape.org/namespaces/inkscape"
   xmlns:sodipodi="http://sodipodi.sourceforge.net/DTD/sodipodi-0.dtd"
   xmlns="http://www.w3.org/2000/svg"
   xmlns:svg="http://www.w3.org/2000/svg"
   xmlns:rdf="http://www.w3.org/1999/02/22-rdf-syntax-ns#"
   xmlns:cc="http://creativecommons.org/ns#"
   xmlns:dc="http://purl.org/dc/elements/1.1/">
  <title
     id="title1">TBRPG logo</title>
  <sodipodi:namedview
     fit-margin-bottom="0"
     fit-margin-right="0"
     fit-margin-left="0"
     fit-margin-top="0"
     inkscape:document-rotation="0"
     inkscape:pagecheckerboard="true"
     showborder="true"
     inkscape:snap-bbox="true"
     guidetolerance="20"
     showguides="true"
     inkscape:snap-page="true"
     inkscape:snap-grids="true"
     inkscape:showpageshadow="true"
     inkscape:window-maximized="0"
     inkscape:window-y="0"
     inkscape:window-x="1728"
     inkscape:window-height="1664"
     inkscape:window-width="3008"
     showgrid="true"
     inkscape:current-layer="layer1"
     inkscape:document-units="px"
     inkscape:cy="276.75246"
     inkscape:cx="511.66172"
     inkscape:zoom="0.68111408"
     inkscape:pageshadow="2"
     inkscape:pageopacity="0.09803922"
     borderopacity="1.0"
     bordercolor="#666666"
     pagecolor="#c6c6c6"
     id="base"
     inkscape:deskcolor="#d1d1d1"
     labelstyle="below">
    <inkscape:grid
       originy="0"
       originx="0"
       units="px"
       spacingy="10"
       spacingx="10"
       dotted="false"
       snapvisiblegridlinesonly="true"
       enabled="true"
       visible="true"
       empspacing="1"
       id="grid3756"
       type="xygrid" />
  </sodipodi:namedview>
  <metadata
     id="metadata7">
    <rdf:RDF>
      <cc:Work
         rdf:about="">
        <dc:format>image/svg+xml</dc:format>
        <dc:type
           rdf:resource="http://purl.org/dc/dcmitype/StillImage" />
        <dc:title>TBRPG logo</dc:title>
        <dc:creator>
          <cc:Agent>
            <dc:title>Offirmo</dc:title>
          </cc:Agent>
        </dc:creator>
        <cc:license
           rdf:resource="http://creativecommons.org/publicdomain/zero/1.0/" />
      </cc:Work>
      <cc:License
         rdf:about="http://creativecommons.org/publicdomain/zero/1.0/">
        <cc:permits
           rdf:resource="http://creativecommons.org/ns#Reproduction" />
        <cc:permits
           rdf:resource="http://creativecommons.org/ns#Distribution" />
        <cc:permits
           rdf:resource="http://creativecommons.org/ns#DerivativeWorks" />
      </cc:License>
    </rdf:RDF>
  </metadata>
  <g
     style="display:inline"
     transform="translate(-684,-56.362168)"
     id="layer1"
     inkscape:groupmode="layer"
     inkscape:label="Base">
    <rect
       style="display:inline;fill:#3876bf;fill-opacity:1"
       id="rect1"
       width="1024"
       height="1024"
       x="684"
       y="56.362167"
       inkscape:label="background" />
  </g>
  <g
     transform="translate(-684,-84)"
     style="display:inline"
     inkscape:label="Logos"
     id="layer10"
     inkscape:groupmode="layer">
    <path
       inkscape:export-filename="/Users/offirmo/work/src/off/offirmo-monorepo/C-apps--clients/the-boring-rpg/client--browser/src/favicons/android-chrome-512x512.png"
       inkscape:export-ydpi="48"
       inkscape:export-xdpi="48"
       style="display:inline;fill:#f3f0ca;fill-rule:evenodd;stroke-width:48;stroke-miterlimit:4;stroke-dasharray:none;fill-opacity:1"
       inkscape:connector-curvature="0"
       d="m 1218.2004,207.86424 c -43.7014,14.1636 -86.7236,44.97289 -116.1971,89.15266 28.1667,76.89959 28.1667,91.93015 0,168.82813 31.9813,24.82564 64.7075,39.75185 97.5847,44.10272 -3.3121,-41.04105 -5.8279,-82.08852 1.8061,-123.12476 -21.8747,-2.38093 -37.5266,-9.62489 -59.4029,-22.27451 v -51.72557 c 57.5823,30.65837 99.2832,30.14622 158.6429,0 v 51.72878 c -21.4557,10.43084 -35.1377,17.91722 -56.5934,21.22132 5.8022,41.04907 5.5871,82.12063 2.2075,123.17291 29.9327,-5.24191 59.7819,-19.44725 89.1045,-43.09928 -23.0435,-76.89798 -23.0467,-91.93015 0,-168.82653 -27.2643,-44.96646 -76.1851,-74.86865 -117.1523,-89.15587 z m -208.0614,13.19389 c -41.59177,177.26817 -43.91008,345.70938 -43.99037,531.29077 -30.2473,-2.46763 -60.33731,-8.22009 -89.95051,-17.85301 v 45.84306 h 110.8845 c 13.99178,56.23216 10.39071,112.46753 -1.6633,168.7013 h 45.16228 c -11.5514,-56.23377 -13.2244,-112.46914 -1.3999,-168.7013 h 110.6244 v -45.84467 c -29.6855,7.93432 -59.814,13.73012 -90.063,16.79339 0.1317,-184.53461 4.0073,-358.13264 -39.6025,-530.22794 z m 143.6428,324.91031 c 0,188.27539 40.9672,374.62741 192.9074,414.16732 167.2644,-33.7714 193.1127,-225.37336 193.1127,-414.16893 h -386.0233 z"
       id="path4" />
  </g>
</svg>
